<?xml version="1.0" encoding="UTF-8"?>
<svg width="166.04mm" height="146.47mm" version="1.1" viewBox="0 0 166.04 146.47" xmlns="http://www.w3.org/2000/svg" xmlns:cc="http://creativecommons.org/ns#" xmlns:dc="http://purl.org/dc/elements/1.1/" xmlns:rdf="http://www.w3.org/1999/02/22-rdf-syntax-ns#">
 <defs>
  <linearGradient id="linearGradient977" x1="635.55" x2="826.29" y1="889.98" y2="889.98" gradientTransform="matrix(.26458 0 0 .26458 -77.081 -54.256)" gradientUnits="userSpaceOnUse">
   <stop stop-color="#ffc107" offset="0"/>
   <stop stop-color="#e65100" offset="1"/>
  </linearGradient>
 </defs>
 <metadata>
  <rdf:RDF>
   <cc:Work rdf:about="">
    <dc:format>image/svg+xml</dc:format>
    <dc:type rdf:resource="http://purl.org/dc/dcmitype/StillImage"/>
    <dc:title/>
   </cc:Work>
  </rdf:RDF>
 </metadata>
 <g transform="translate(-23.397 -107.98)">
  <path d="m97.528 107.98c-40.823 0-74.131 32.906-74.131 73.235 0 40.33 33.308 73.235 74.131 73.235h20v-42.652h9.9942l24.226 42.652 20.024-1e-4 -2.7032-10.691-19.303-33.433c22.695-5.539 39.671-26.1 39.671-50.437 0-27.484-21.649-50.153-48.734-51.809v-0.10077zm0 19.758v106.95c-30.014 0-54.131-23.825-54.131-53.477 0-29.651 24.117-53.477 54.131-53.477zm20 0.24133h20c17.741 5.5e-4 31.909 14.169 31.909 31.91s-14.168 31.908-31.909 31.908h-20zm-39.659 5.7614-5.8203 3.36 6.7205 11.64 5.8198-3.36zm-20.062 17.603-3.36 5.8198 11.64 6.7205 3.3605-5.8203zm-8.8878 24.96v7.4998h15v-7.4998zm17.167 20.63-11.64 6.72 3.36 5.8203 11.64-6.7205zm12.683 15.772-6.7205 11.64 5.8203 3.3605 6.72-11.64z" fill="url(#linearGradient977)"/>
 </g>
</svg>
