<?xml version="1.0" encoding="UTF-8"?>
<svg width="395.86mm" height="146.47mm" version="1.1" viewBox="0 0 395.86 146.47" xmlns="http://www.w3.org/2000/svg" xmlns:cc="http://creativecommons.org/ns#" xmlns:dc="http://purl.org/dc/elements/1.1/" xmlns:rdf="http://www.w3.org/1999/02/22-rdf-syntax-ns#">
 <defs>
  <linearGradient id="linearGradient977" x1="673.55" x2="1085.8" y1="889.98" y2="889.98" gradientTransform="translate(-599.33 -255.06)" gradientUnits="userSpaceOnUse">
   <stop stop-color="#ffc107" offset="0"/>
   <stop stop-color="#e65100" offset="1"/>
  </linearGradient>
 </defs>
 <metadata>
  <rdf:RDF>
   <cc:Work rdf:about="">
    <dc:format>image/svg+xml</dc:format>
    <dc:type rdf:resource="http://purl.org/dc/dcmitype/StillImage"/>
    <dc:title/>
   </cc:Work>
  </rdf:RDF>
 </metadata>
 <g transform="translate(58.095 -94.754)">
  <path transform="scale(.26458)" d="m60.609 358.12c-154.29 0-280.18 124.37-280.18 276.79 0 152.43 125.89 276.79 280.18 276.79h75.592v-161.21h37.773l91.564 161.21 75.68-9e-3 -10.217-40.406-72.955-126.36c85.775-20.935 149.94-98.645 149.94-190.63 0-103.88-81.821-189.56-184.19-195.81v-0.38086zm0 74.678v404.23c-113.44 0-204.59-90.049-204.59-202.12 0-112.07 91.151-202.12 204.59-202.12zm75.592 0.91211h75.59c67.053 2e-3 120.6 53.552 120.6 120.61 0 67.053-53.549 120.6-120.6 120.6h-75.59zm-149.89 21.775-21.998 12.699 25.4 43.994 21.996-12.699zm-75.826 66.529-12.699 21.996 43.992 25.4 12.701-21.998zm718.14 77.734v305.8h42.977v-305.8zm98.352 0v50.416h42.979v-50.416zm360.35 0v305.8h42.978v-305.8zm-1210.4 16.604v28.346h56.693v-28.346zm592.21 54.062c-64.467 0-117.36 51.656-117.36 120.26 0 64.88 51.657 120.67 116.54 120.67 35.539 0 88.022-18.597 109.92-77.691h-42.979c-10.331 19.836-33.473 38.434-65.293 38.434-28.927 0-64.466-18.185-75.211-62.402h189.68c0.41325-2.8927 1.2383-14.462 1.2383-21.9-0.41325-66.946-54.548-117.36-116.54-117.36zm463.66 0c-9.0915 0-43.805-4e-4 -66.947 30.58h-0.82617v-24.383h-40.084v228.94h42.977v-124.8c0-45.871 24.383-71.08 60.336-71.08 57.028 0 57.027 53.722 57.027 71.492v124.39h42.978v-135.55c-0.4132-25.621-5.3733-43.803-14.465-58.68-16.53-25.621-45.457-40.912-80.996-40.912zm-205.8 6.1973v228.94h42.979v-228.94zm485.57 0-81.41 110.34 91.742 118.6h53.723l-96.287-121.08 83.062-107.86zm-1270.8 17.713-43.992 25.398 12.699 21.998 43.994-25.4zm526.92 15.348c41.325 0 71.906 33.474 73.973 66.947h-147.94c2.0662-33.473 32.646-66.947 73.971-66.947zm-478.98 44.264-25.4 43.992 21.998 12.701 25.398-43.994z" fill="url(#linearGradient977)"/>
 </g>
</svg>
